<mxfile host="app.diagrams.net" modified="2024-05-31T08:04:52.588Z" agent="Mozilla/5.0 (Windows NT 10.0; Win64; x64) AppleWebKit/537.36 (KHTML, like Gecko) Chrome/118.0.0.0 Safari/537.36 Edg/118.0.2088.46" version="21.6.8" etag="XK_qukCPPENyAK7wwa9Q" type="github">
  <diagram name="第 1 页" id="78z2cwABrwM6ZTJYdppm">
    <mxGraphModel>
      <root>
        <mxCell id="0" />
        <mxCell id="1" parent="0" />
      </root>
    </mxGraphModel>
  </diagram>
</mxfile>
